  0
SECTION
  2
HEADER
  9
$ACADVER
  1
AC1009
  0
ENDSEC
  0
SECTION
  2
ENTITIES
  0
POLYLINE
  8
PEC
 66
1
 39
0
 10
0.000000
 20
0.000000
 30
0.000000
 70
0
  0
VERTEX
  8
PEC
 39
0
 10
74.272535
 20
-38.977263
 30
0.000000
 70
0
 42
0
  0
VERTEX
  8
PEC
 39
0
 10
-25.727465
 20
-38.977263
 30
0.000000
 70
0
 42
0
  0
SEQEND
  0
POLYLINE
  8
PEC
 66
1
 39
0
 10
0.000000
 20
0.000000
 30
0.000000
 70
4
 75
5
  0
VERTEX
  8
PEC
 39
0
 10
-105.727465
 20
48.022737
 30
0.000000
 70
16
 42
0
  0
VERTEX
  8
PEC
 39
0
 10
74.272535
 20
-38.977263
 30
0.000000
 70
8
 42
0
  0
VERTEX
  8
PEC
 39
0
 10
73.372213
 20
-30.286595
 30
0.000000
 70
8
 42
0
  0
VERTEX
  8
PEC
 39
0
 10
69.919080
 20
-19.958903
 30
0.000000
 70
8
 42
0
  0
VERTEX
  8
PEC
 39
0
 10
64.400749
 20
-10.561576
 30
0.000000
 70
8
 42
0
  0
VERTEX
  8
PEC
 39
0
 10
57.400383
 20
-2.201647
 30
0.000000
 70
8
 42
0
  0
VERTEX
  8
PEC
 39
0
 10
49.367505
 20
5.177162
 30
0.000000
 70
8
 42
0
  0
VERTEX
  8
PEC
 39
0
 10
40.609172
 20
11.681947
 30
0.000000
 70
8
 42
0
  0
VERTEX
  8
PEC
 39
0
 10
31.329301
 20
17.420598
 30
0.000000
 70
8
 42
0
  0
VERTEX
  8
PEC
 39
0
 10
21.664777
 20
22.486351
 30
0.000000
 70
8
 42
0
  0
VERTEX
  8
PEC
 39
0
 10
11.709830
 20
26.955643
 30
0.000000
 70
8
 42
0
  0
VERTEX
  8
PEC
 39
0
 10
1.531260
 20
30.890013
 30
0.000000
 70
8
 42
0
  0
VERTEX
  8
PEC
 39
0
 10
-8.822161
 20
34.338783
 30
0.000000
 70
8
 42
0
  0
VERTEX
  8
PEC
 39
0
 10
-19.313802
 20
37.341481
 30
0.000000
 70
8
 42
0
  0
VERTEX
  8
PEC
 39
0
 10
-29.915390
 20
39.929815
 30
0.000000
 70
8
 42
0
  0
VERTEX
  8
PEC
 39
0
 10
-40.604528
 20
42.129185
 30
0.000000
 70
8
 42
0
  0
VERTEX
  8
PEC
 39
0
 10
-51.363007
 20
43.959844
 30
0.000000
 70
8
 42
0
  0
VERTEX
  8
PEC
 39
0
 10
-62.175635
 20
45.437755
 30
0.000000
 70
8
 42
0
  0
VERTEX
  8
PEC
 39
0
 10
-73.029389
 20
46.575243
 30
0.000000
 70
8
 42
0
  0
VERTEX
  8
PEC
 39
0
 10
-83.912786
 20
47.381460
 30
0.000000
 70
8
 42
0
  0
VERTEX
  8
PEC
 39
0
 10
-94.815400
 20
47.862723
 30
0.000000
 70
8
 42
0
  0
VERTEX
  8
PEC
 39
0
 10
-105.727465
 20
48.022737
 30
0.000000
 70
8
 42
0
  0
VERTEX
  8
PEC
 39
0
 10
74.272535
 20
48.022737
 30
0.000000
 70
16
 42
0
  0
VERTEX
  8
PEC
 39
0
 10
74.272535
 20
-38.977263
 30
0.000000
 70
16
 42
0
  0
SEQEND
  0
POLYLINE
  8
PEC
 66
1
 39
0
 10
0.000000
 20
0.000000
 30
0.000000
 70
0
  0
VERTEX
  8
PEC
 39
0
 10
-105.727465
 20
41.022737
 30
0.000000
 70
0
 42
0
  0
VERTEX
  8
PEC
 39
0
 10
-105.727465
 20
48.022737
 30
0.000000
 70
0
 42
0
  0
SEQEND
  0
POLYLINE
  8
PEC
 66
1
 39
0
 10
0.000000
 20
0.000000
 30
0.000000
 70
0
  0
VERTEX
  8
PEC
 39
0
 10
-25.727465
 20
-38.977263
 30
0.000000
 70
0
 42
0.198912
  0
VERTEX
  8
PEC
 39
0
 10
-49.158923
 20
17.591279
 30
0.000000
 70
0
 42
0.198912
  0
VERTEX
  8
PEC
 39
0
 10
-105.727465
 20
41.022737
 30
0.000000
 70
0
 42
0.198912
  0
SEQEND
  0
ENDSEC
  0
EOF
