  0
SECTION
  2
HEADER
  9
$ACADVER
  1
AC1009
  0
ENDSEC
  0
SECTION
  2
ENTITIES
  0
POLYLINE
  8
PEC
 66
1
 39
0
 10
0.000000
 20
0.000000
 30
0.000000
 70
0
  0
VERTEX
  8
PEC
 39
0
 10
-25.727465
 20
38.977263
 30
0.000000
 70
0
 42
0
  0
VERTEX
  8
PEC
 39
0
 10
74.272535
 20
38.977263
 30
0.000000
 70
0
 42
0
  0
SEQEND
  0
POLYLINE
  8
PEC
 66
1
 39
0
 10
0.000000
 20
0.000000
 30
0.000000
 70
0
  0
VERTEX
  8
PEC
 39
0
 10
-105.727465
 20
-41.022737
 30
0.000000
 70
0
 42
0.198912
  0
VERTEX
  8
PEC
 39
0
 10
-49.158923
 20
-17.591279
 30
0.000000
 70
0
 42
0.198912
  0
VERTEX
  8
PEC
 39
0
 10
-25.727465
 20
38.977263
 30
0.000000
 70
0
 42
0.198912
  0
SEQEND
  0
POLYLINE
  8
PEC
 66
1
 39
0
 10
0.000000
 20
0.000000
 30
0.000000
 70
0
  0
VERTEX
  8
PEC
 39
0
 10
-105.727465
 20
-48.022737
 30
0.000000
 70
0
 42
0
  0
VERTEX
  8
PEC
 39
0
 10
-105.727465
 20
-41.022737
 30
0.000000
 70
0
 42
0
  0
SEQEND
  0
POLYLINE
  8
PEC
 66
1
 39
0
 10
0.000000
 20
0.000000
 30
0.000000
 70
4
 75
5
  0
VERTEX
  8
PEC
 39
0
 10
74.272535
 20
38.977263
 30
0.000000
 70
16
 42
0
  0
VERTEX
  8
PEC
 39
0
 10
-105.727465
 20
-48.022737
 30
0.000000
 70
8
 42
0
  0
VERTEX
  8
PEC
 39
0
 10
-96.975757
 20
-47.919843
 30
0.000000
 70
8
 42
0
  0
VERTEX
  8
PEC
 39
0
 10
-86.070510
 20
-47.502408
 30
0.000000
 70
8
 42
0
  0
VERTEX
  8
PEC
 39
0
 10
-75.182506
 20
-46.760955
 30
0.000000
 70
8
 42
0
  0
VERTEX
  8
PEC
 39
0
 10
-64.322011
 20
-45.689698
 30
0.000000
 70
8
 42
0
  0
VERTEX
  8
PEC
 39
0
 10
-53.500262
 20
-44.280070
 30
0.000000
 70
8
 42
0
  0
VERTEX
  8
PEC
 39
0
 10
-42.729932
 20
-42.520406
 30
0.000000
 70
8
 42
0
  0
VERTEX
  8
PEC
 39
0
 10
-32.025728
 20
-40.395509
 30
0.000000
 70
8
 42
0
  0
VERTEX
  8
PEC
 39
0
 10
-21.405178
 20
-37.886038
 30
0.000000
 70
8
 42
0
  0
VERTEX
  8
PEC
 39
0
 10
-10.889736
 20
-34.967690
 30
0.000000
 70
8
 42
0
  0
VERTEX
  8
PEC
 39
0
 10
-0.506345
 20
-31.610117
 30
0.000000
 70
8
 42
0
  0
VERTEX
  8
PEC
 39
0
 10
9.710269
 20
-27.775479
 30
0.000000
 70
8
 42
0
  0
VERTEX
  8
PEC
 39
0
 10
19.714123
 20
-23.416573
 30
0.000000
 70
8
 42
0
  0
VERTEX
  8
PEC
 39
0
 10
29.442597
 20
-18.474491
 30
0.000000
 70
8
 42
0
  0
VERTEX
  8
PEC
 39
0
 10
38.807873
 20
-12.875948
 30
0.000000
 70
8
 42
0
  0
VERTEX
  8
PEC
 39
0
 10
47.683107
 20
-6.531070
 30
0.000000
 70
8
 42
0
  0
VERTEX
  8
PEC
 39
0
 10
55.880147
 20
0.665726
 30
0.000000
 70
8
 42
0
  0
VERTEX
  8
PEC
 39
0
 10
63.115704
 20
8.824141
 30
0.000000
 70
8
 42
0
  0
VERTEX
  8
PEC
 39
0
 10
68.970620
 20
18.017202
 30
0.000000
 70
8
 42
0
  0
VERTEX
  8
PEC
 39
0
 10
72.881494
 20
28.182147
 30
0.000000
 70
8
 42
0
  0
VERTEX
  8
PEC
 39
0
 10
74.272535
 20
38.977263
 30
0.000000
 70
8
 42
0
  0
VERTEX
  8
PEC
 39
0
 10
74.272535
 20
-48.022737
 30
0.000000
 70
16
 42
0
  0
VERTEX
  8
PEC
 39
0
 10
-105.727465
 20
-48.022737
 30
0.000000
 70
16
 42
0
  0
SEQEND
  0
ENDSEC
  0
EOF
